<svg width="20" height="20" viewBox="0 0 20 20" fill="none" xmlns="http://www.w3.org/2000/svg">
<g clip-path="url(#clip0_17301_1931)">
<path d="M9.16667 1.6665L11.6667 4.1665M11.6667 4.1665L9.16667 6.6665M11.6667 4.1665H5.66667C4.26654 4.1665 3.56647 4.1665 3.03169 4.43899C2.56129 4.67867 2.17884 5.06112 1.93915 5.53153C1.66667 6.06631 1.66667 6.76637 1.66667 8.1665V12.9165C1.66667 13.3035 1.66667 13.497 1.68806 13.6595C1.83575 14.7813 2.71852 15.6641 3.84035 15.8118C4.00281 15.8332 4.19632 15.8332 4.58333 15.8332M8.33333 15.8332H14.3333C15.7335 15.8332 16.4335 15.8332 16.9683 15.5607C17.4387 15.321 17.8212 14.9386 18.0609 14.4681C18.3333 13.9334 18.3333 13.2333 18.3333 11.8332V7.08317C18.3333 6.69615 18.3333 6.50265 18.3119 6.34019C18.1643 5.21835 17.2815 4.33558 16.1596 4.18789C15.9972 4.1665 15.8037 4.1665 15.4167 4.1665M8.33333 15.8332L10.8333 18.3332M8.33333 15.8332L10.8333 13.3332" stroke="#A4A7AE" stroke-width="1.67" stroke-linecap="round" stroke-linejoin="round"/>
</g>
<defs>
<clipPath id="clip0_17301_1931">
<rect width="20" height="20" fill="white"/>
</clipPath>
</defs>
</svg>
