<svg width="20" height="20" viewBox="0 0 20 20" fill="none" xmlns="http://www.w3.org/2000/svg">
<path d="M11.7428 5.60201H16.7042C17.0977 5.60201 17.2944 5.60201 17.4095 5.68474C17.5098 5.75691 17.5752 5.86801 17.5896 5.99081C17.606 6.13155 17.5105 6.30352 17.3194 6.64747L16.1353 8.77878C16.066 8.90352 16.0314 8.96588 16.0178 9.03193C16.0058 9.09039 16.0058 9.15068 16.0178 9.20913C16.0314 9.27518 16.066 9.33755 16.1353 9.46228L17.3194 11.5936C17.5104 11.9375 17.606 12.1095 17.5896 12.2503C17.5752 12.3731 17.5098 12.4842 17.4095 12.5563C17.2944 12.6391 17.0977 12.6391 16.7042 12.6391H10.5113C10.0187 12.6391 9.77233 12.6391 9.58417 12.5432C9.41865 12.4588 9.28409 12.3243 9.19976 12.1588C9.10388 11.9706 9.10388 11.7243 9.10388 11.2316V9.12053M6.02518 17.9168L2.50666 3.84276M3.82614 9.12053H10.3354C10.828 9.12053 11.0743 9.12053 11.2625 9.02466C11.428 8.94033 11.5626 8.80576 11.6469 8.64025C11.7428 8.45208 11.7428 8.20576 11.7428 7.71313V3.4909C11.7428 2.99826 11.7428 2.75195 11.6469 2.56378C11.5626 2.39827 11.428 2.2637 11.2625 2.17937C11.0743 2.0835 10.828 2.0835 10.3354 2.0835H3.8694C3.25496 2.0835 2.94774 2.0835 2.73762 2.21081C2.55345 2.32239 2.41661 2.49766 2.35302 2.70339C2.28048 2.93812 2.35499 3.23617 2.50402 3.83226L3.82614 9.12053Z" stroke="#A4A7AE" stroke-width="2.004" stroke-linecap="round" stroke-linejoin="round"/>
</svg>
