<svg width="20" height="20" viewBox="0 0 20 20" fill="none" xmlns="http://www.w3.org/2000/svg">
<g clip-path="url(#clip0_17301_1951)">
<path d="M3.33335 18.181C3.8355 18.3332 4.51374 18.3332 5.66667 18.3332H14.3333C15.4863 18.3332 16.1645 18.3332 16.6666 18.181M3.33335 18.181C3.22569 18.1484 3.12611 18.1088 3.03169 18.0607C2.56129 17.821 2.17884 17.4386 1.93915 16.9681C1.66667 16.4334 1.66667 15.7333 1.66667 14.3332V5.6665C1.66667 4.26637 1.66667 3.56631 1.93915 3.03153C2.17884 2.56112 2.56129 2.17867 3.03169 1.93899C3.56647 1.6665 4.26654 1.6665 5.66667 1.6665H14.3333C15.7335 1.6665 16.4335 1.6665 16.9683 1.93899C17.4387 2.17867 17.8212 2.56112 18.0609 3.03153C18.3333 3.56631 18.3333 4.26637 18.3333 5.6665V14.3332C18.3333 15.7333 18.3333 16.4334 18.0609 16.9681C17.8212 17.4386 17.4387 17.821 16.9683 18.0607C16.8739 18.1088 16.7743 18.1484 16.6666 18.181M3.33335 18.181C3.33363 17.5066 3.33767 17.1497 3.39738 16.8495C3.66041 15.5272 4.69406 14.4936 6.01637 14.2306C6.33836 14.1665 6.72558 14.1665 7.5 14.1665H12.5C13.2744 14.1665 13.6616 14.1665 13.9836 14.2306C15.3059 14.4936 16.3396 15.5272 16.6026 16.8495C16.6623 17.1497 16.6664 17.5066 16.6666 18.181M13.3333 7.9165C13.3333 9.75745 11.841 11.2498 10 11.2498C8.15905 11.2498 6.66667 9.75745 6.66667 7.9165C6.66667 6.07555 8.15905 4.58317 10 4.58317C11.841 4.58317 13.3333 6.07555 13.3333 7.9165Z" stroke="#A4A7AE" stroke-width="1.67" stroke-linecap="round" stroke-linejoin="round"/>
</g>
<defs>
<clipPath id="clip0_17301_1951">
<rect width="20" height="20" fill="white"/>
</clipPath>
</defs>
</svg>
