<svg width="20" height="20" viewBox="0 0 20 20" fill="none" xmlns="http://www.w3.org/2000/svg">
<path d="M14 10C14 12.2091 12.2091 14 10 14C7.79086 14 6 12.2091 6 10C6 7.79086 7.79086 6 10 6C12.2091 6 14 7.79086 14 10ZM7.51814 10C7.51814 11.3707 8.62931 12.4819 10 12.4819C11.3707 12.4819 12.4819 11.3707 12.4819 10C12.4819 8.62931 11.3707 7.51814 10 7.51814C8.62931 7.51814 7.51814 8.62931 7.51814 10Z" fill="#F8F8F8"/>
<path d="M17 10C17 13.866 13.866 17 10 17C6.13401 17 3 13.866 3 10C3 6.13401 6.13401 3 10 3C13.866 3 17 6.13401 17 10ZM4.51985 10C4.51985 13.0266 6.9734 15.4801 10 15.4801C13.0266 15.4801 15.4801 13.0266 15.4801 10C15.4801 6.9734 13.0266 4.51985 10 4.51985C6.9734 4.51985 4.51985 6.9734 4.51985 10Z" fill="#F8F8F8"/>
<path d="M20 10C20 15.5228 15.5228 20 10 20C4.47715 20 0 15.5228 0 10C0 4.47715 4.47715 0 10 0C15.5228 0 20 4.47715 20 10ZM1.51899 10C1.51899 14.6839 5.31607 18.481 10 18.481C14.6839 18.481 18.481 14.6839 18.481 10C18.481 5.31607 14.6839 1.51899 10 1.51899C5.31607 1.51899 1.51899 5.31607 1.51899 10Z" fill="#F8F8F8"/>
<path d="M10 14C8.93913 14 7.92172 13.5786 7.17157 12.8284C6.42143 12.0783 6 11.0609 6 10C6 8.93913 6.42143 7.92172 7.17157 7.17157C7.92172 6.42143 8.93913 6 10 6V7.51814C9.342 7.51814 8.71096 7.78041 8.24568 8.24568C7.78041 8.71096 7.51814 9.342 7.51814 10C7.51814 10.658 7.78041 11.289 8.24568 11.7543C8.71096 12.2196 9.342 12.4819 10 12.4819V14Z" fill="#4539CC"/>
<path d="M17 10C17 13.866 13.866 17 10 17C6.13401 17 3 13.866 3 10C3 6.13401 6.13401 3 10 3C13.866 3 17 6.13401 17 10ZM4.51985 10C4.51985 13.0266 6.9734 15.4801 10 15.4801C13.0266 15.4801 15.4801 13.0266 15.4801 10C15.4801 6.9734 13.0266 4.51985 10 4.51985C6.9734 4.51985 4.51985 6.9734 4.51985 10Z" fill="#4539CC"/>
<path d="M10 0C12.6522 3.16268e-08 15.1957 1.05357 17.0711 2.92893C18.9464 4.80429 20 7.34784 20 10C20 12.6522 18.9464 15.1957 17.0711 17.0711C15.1957 18.9464 12.6522 20 10 20V18.481C12.2491 18.481 14.406 17.5867 15.9964 15.9964C17.5867 14.406 18.481 12.2491 18.481 10C18.481 7.75093 17.5867 5.59397 15.9964 4.00364C14.406 2.41331 12.2491 1.51899 10 1.51899V0Z" fill="#4539CC"/>
</svg>
