<svg width="100" height="23" viewBox="0 0 100 23" fill="none" xmlns="http://www.w3.org/2000/svg">
<path d="M91.3555 18.6939C91.0008 18.9841 90.5655 19.2017 90.0496 19.3468C89.5498 19.4919 89.0178 19.5645 88.4535 19.5645C87.0347 19.5645 85.9384 19.1937 85.1645 18.4521C84.3907 17.7104 84.0037 16.6302 84.0037 15.2115V3.62755H87.0267V6.57794H90.4849V8.99629H87.0267V15.1389C87.0267 15.7677 87.1798 16.2514 87.4862 16.5899C87.8086 16.9124 88.252 17.0736 88.8162 17.0736C89.4934 17.0736 90.0577 16.8962 90.5091 16.5416L91.3555 18.6939Z" fill="#0D0D0D"/>
<path d="M75.6447 19.5645C74.5968 19.5645 73.573 19.4274 72.5734 19.1533C71.5738 18.8793 70.7758 18.5326 70.1792 18.1134L71.34 15.816C71.9204 16.2029 72.6137 16.5173 73.4198 16.7592C74.2421 16.9849 75.0482 17.0977 75.8382 17.0977C77.6439 17.0977 78.5467 16.6221 78.5467 15.6709C78.5467 15.2195 78.313 14.9051 77.8454 14.7277C77.394 14.5504 76.6604 14.3811 75.6447 14.2199C74.5806 14.0587 73.71 13.8733 73.0329 13.6637C72.3719 13.4541 71.7915 13.0913 71.2917 12.5754C70.808 12.0434 70.5662 11.3098 70.5662 10.3747C70.5662 9.14942 71.074 8.17401 72.0897 7.44851C73.1216 6.70688 74.5081 6.33606 76.2493 6.33606C77.136 6.33606 78.0228 6.44086 78.9095 6.65045C79.7962 6.84392 80.5217 7.10994 81.086 7.44851L79.9252 9.74594C78.8289 9.10105 77.5955 8.7786 76.2251 8.7786C75.3384 8.7786 74.6613 8.91564 74.1937 9.18972C73.7423 9.44768 73.5166 9.79431 73.5166 10.2296C73.5166 10.7133 73.7584 11.0599 74.2421 11.2695C74.7419 11.463 75.5077 11.6484 76.5395 11.8257C77.5713 11.9869 78.4178 12.1724 79.0788 12.3819C79.7398 12.5915 80.3041 12.9462 80.7716 13.446C81.2553 13.9458 81.4971 14.6552 81.4971 15.5742C81.4971 16.7833 80.9732 17.7507 79.9252 18.4762C78.8773 19.2017 77.4504 19.5645 75.6447 19.5645Z" fill="#0D0D0D"/>
<path d="M67.6993 6.48116V19.3952H64.8215V17.7265C64.3217 18.3392 63.701 18.7986 62.9593 19.105C62.2338 19.4113 61.4277 19.5645 60.541 19.5645C59.2834 19.5645 58.1549 19.2904 57.1553 18.7422C56.1718 18.1941 55.3979 17.4202 54.8337 16.4206C54.2855 15.421 54.0114 14.2602 54.0114 12.9382C54.0114 11.6161 54.2855 10.4634 54.8337 9.47992C55.3979 8.48034 56.1718 7.70646 57.1553 7.1583C58.1549 6.61014 59.2834 6.33606 60.541 6.33606C61.3793 6.33606 62.1451 6.48116 62.8384 6.77137C63.5478 7.06157 64.1604 7.48881 64.6764 8.05309V6.48116H67.6993ZM60.8795 16.9768C61.992 16.9768 62.911 16.606 63.6365 15.8644C64.362 15.1227 64.7247 14.1473 64.7247 12.9382C64.7247 11.729 64.362 10.7536 63.6365 10.012C62.911 9.27033 61.992 8.89952 60.8795 8.89952C59.7671 8.89952 58.8481 9.27033 58.1226 10.012C57.4132 10.7536 57.0585 11.729 57.0585 12.9382C57.0585 14.1473 57.4132 15.1227 58.1226 15.8644C58.8481 16.606 59.7671 16.9768 60.8795 16.9768Z" fill="#0D0D0D"/>
<path d="M51.4438 19.5645C50.1057 19.5645 49.0577 19.2017 48.2999 18.4762C47.5583 17.7346 47.1875 16.6947 47.1875 15.3565V1.451H50.2104V15.1389C50.2104 16.4287 50.815 17.0736 52.0242 17.0736C52.4273 17.0736 52.79 16.993 53.1125 16.8317L53.2576 19.2501C52.6933 19.4597 52.0887 19.5645 51.4438 19.5645Z" fill="#0D0D0D"/>
<path d="M39.1786 19.5645C37.8404 19.5645 36.6393 19.2823 35.5753 18.718C34.5112 18.1538 33.6809 17.3718 33.0843 16.3722C32.4878 15.3565 32.1896 14.2118 32.1896 12.9382C32.1896 11.6645 32.4878 10.5279 33.0843 9.52829C33.6809 8.5287 34.5031 7.74677 35.5511 7.18249C36.6151 6.61821 37.8243 6.33606 39.1786 6.33606C40.4523 6.33606 41.5647 6.59402 42.5159 7.10994C43.4833 7.62585 44.2088 8.36748 44.6924 9.33482L42.3708 10.6891C42 10.0926 41.5325 9.64921 40.9682 9.359C40.42 9.05268 39.8154 8.89952 39.1544 8.89952C38.0258 8.89952 37.0908 9.27033 36.3491 10.012C35.6075 10.7375 35.2367 11.7129 35.2367 12.9382C35.2367 14.1635 35.5994 15.1469 36.3249 15.8886C37.0666 16.6141 38.0097 16.9768 39.1544 16.9768C39.8154 16.9768 40.42 16.8317 40.9682 16.5415C41.5325 16.2352 42 15.7838 42.3708 15.1872L44.6924 16.5415C44.1926 17.5089 43.4591 18.2585 42.4917 18.7906C41.5405 19.3065 40.4361 19.5645 39.1786 19.5645Z" fill="#4539CC"/>
<path d="M23.4706 19.5645C22.1647 19.5645 20.9878 19.2823 19.9398 18.718C18.8919 18.1538 18.0696 17.3718 17.4731 16.3722C16.8927 15.3565 16.6025 14.2118 16.6025 12.9382C16.6025 11.6645 16.8927 10.5279 17.4731 9.52829C18.0696 8.5287 18.8919 7.74677 19.9398 7.18249C20.9878 6.61821 22.1647 6.33606 23.4706 6.33606C24.7927 6.33606 25.9777 6.61821 27.0256 7.18249C28.0736 7.74677 28.8878 8.5287 29.4682 9.52829C30.0647 10.5279 30.3629 11.6645 30.3629 12.9382C30.3629 14.2118 30.0647 15.3565 29.4682 16.3722C28.8878 17.3718 28.0736 18.1538 27.0256 18.718C25.9777 19.2823 24.7927 19.5645 23.4706 19.5645ZM23.4706 16.9768C24.5831 16.9768 25.5021 16.606 26.2276 15.8644C26.9531 15.1227 27.3158 14.1473 27.3158 12.9382C27.3158 11.729 26.9531 10.7536 26.2276 10.012C25.5021 9.27033 24.5831 8.89952 23.4706 8.89952C22.3582 8.89952 21.4392 9.27033 20.7137 10.012C20.0043 10.7536 19.6496 11.729 19.6496 12.9382C19.6496 14.1473 20.0043 15.1227 20.7137 15.8644C21.4392 16.606 22.3582 16.9768 23.4706 16.9768Z" fill="#4539CC"/>
<path d="M13.7121 1.45097V19.3952H10.81V17.7265C10.3102 18.3391 9.68954 18.7986 8.94791 19.1049C8.2224 19.4113 7.41628 19.5644 6.52956 19.5644C5.28813 19.5644 4.16763 19.2904 3.16804 18.7422C2.18458 18.194 1.41071 17.4202 0.846424 16.4206C0.282141 15.4049 0 14.2441 0 12.9381C0 11.6322 0.282141 10.4795 0.846424 9.4799C1.41071 8.48032 2.18458 7.70644 3.16804 7.15828C4.16763 6.61012 5.28813 6.33604 6.52956 6.33604C7.38404 6.33604 8.16597 6.48114 8.87536 6.77135C9.58474 7.06155 10.1893 7.49685 10.6891 8.07726V1.45097H13.7121ZM6.89231 16.9768C7.61781 16.9768 8.27077 16.8156 8.85117 16.4931C9.43158 16.1546 9.89107 15.6789 10.2296 15.0663C10.5682 14.4536 10.7375 13.7443 10.7375 12.9381C10.7375 12.132 10.5682 11.4226 10.2296 10.81C9.89107 10.1973 9.43158 9.7298 8.85117 9.40735C8.27077 9.06878 7.61781 8.8995 6.89231 8.8995C6.1668 8.8995 5.51385 9.06878 4.93344 9.40735C4.35304 9.7298 3.89355 10.1973 3.55498 10.81C3.21641 11.4226 3.04713 12.132 3.04713 12.9381C3.04713 13.7443 3.21641 14.4536 3.55498 15.0663C3.89355 15.6789 4.35304 16.1546 4.93344 16.4931C5.51385 16.8156 6.1668 16.9768 6.89231 16.9768Z" fill="#4539CC"/>
<path d="M97.8476 0H99.9999V22.6358H97.8476V0Z" fill="#4539CC"/>
</svg>
