<svg width="20" height="20" viewBox="0 0 20 20" fill="none" xmlns="http://www.w3.org/2000/svg">
<path d="M16.6667 8.75033V5.66699C16.6667 4.26686 16.6667 3.5668 16.3942 3.03202C16.1545 2.56161 15.7721 2.17916 15.3017 1.93948C14.7669 1.66699 14.0668 1.66699 12.6667 1.66699H7.33337C5.93324 1.66699 5.23318 1.66699 4.6984 1.93948C4.22799 2.17916 3.84554 2.56161 3.60586 3.03202C3.33337 3.5668 3.33337 4.26686 3.33337 5.66699V14.3337C3.33337 15.7338 3.33337 16.4339 3.60586 16.9686C3.84554 17.439 4.22799 17.8215 4.6984 18.0612C5.23318 18.3337 5.93324 18.3337 7.33337 18.3337H10M11.6667 9.16699H6.66671M8.33337 12.5003H6.66671M13.3334 5.83366H6.66671M15 17.5003V12.5003M12.5 15.0003H17.5" stroke="white" stroke-width="1.66667" stroke-linecap="round" stroke-linejoin="round"/>
</svg>
