<svg width="23" height="26" viewBox="0 0 23 26" fill="none" xmlns="http://www.w3.org/2000/svg">
<path d="M12.6667 11.5H5.66667M8 16.1667H5.66667M15 6.83333H5.66667M19.6667 10.9167V6.6C19.6667 4.63982 19.6667 3.65972 19.2852 2.91103C18.9496 2.25247 18.4142 1.71703 17.7556 1.38148C17.0069 1 16.0268 1 14.0667 1H6.6C4.63982 1 3.65972 1 2.91103 1.38148C2.25247 1.71703 1.71703 2.25247 1.38148 2.91103C1 3.65972 1 4.63982 1 6.6V18.7333C1 20.6935 1 21.6736 1.38148 22.4223C1.71703 23.0809 2.25247 23.6163 2.91103 23.9519C3.65972 24.3333 4.63982 24.3333 6.6 24.3333H9.75M22 24.3333L20.25 22.5833M21.4167 19.6667C21.4167 21.9218 19.5885 23.75 17.3333 23.75C15.0782 23.75 13.25 21.9218 13.25 19.6667C13.25 17.4115 15.0782 15.5833 17.3333 15.5833C19.5885 15.5833 21.4167 17.4115 21.4167 19.6667Z" stroke="#414651" stroke-width="2" stroke-linecap="round" stroke-linejoin="round"/>
</svg>
