<svg width="20" height="20" viewBox="0 0 20 20" fill="none" xmlns="http://www.w3.org/2000/svg">
<path d="M1.25 7.47222C1.25 5.29424 1.25 4.20525 1.67386 3.37337C2.0467 2.64163 2.64163 2.0467 3.37337 1.67386C4.20525 1.25 5.29424 1.25 7.47222 1.25H12.5278C14.7058 1.25 15.7948 1.25 16.6266 1.67386C17.3584 2.0467 17.9533 2.64163 18.3261 3.37337C18.75 4.20525 18.75 5.29424 18.75 7.47222V12.5278C18.75 14.7058 18.75 15.7948 18.3261 16.6266C17.9533 17.3584 17.3584 17.9533 16.6266 18.3261C15.7948 18.75 14.7058 18.75 12.5278 18.75H7.47222C5.29424 18.75 4.20525 18.75 3.37337 18.3261C2.64163 17.9533 2.0467 17.3584 1.67386 16.6266C1.25 15.7948 1.25 14.7058 1.25 12.5278V7.47222Z" fill="white"/>
<path d="M10.0013 7.78168L7.83826 3.96436C7.91008 3.89123 7.99271 3.84327 8.07534 3.81104C7.43747 4.02097 7.14478 4.73726 7.14478 4.73726L3.19322 11.7091C3.13762 11.9277 3.12217 12.125 3.12912 12.2988H7.4421L10.0013 7.78168Z" fill="#34A853"/>
<path d="M10.0012 7.78168L12.5604 12.2988H16.8734C16.8804 12.125 16.8649 11.9277 16.8093 11.7091L12.8577 4.73726C12.8577 4.73726 12.5643 4.02097 11.9272 3.81104C12.0091 3.84327 12.0925 3.89123 12.1643 3.96436L10.0012 7.78168Z" fill="#FBBC05"/>
<path d="M10.0012 7.78214L12.1642 3.96482C12.0924 3.89169 12.009 3.84373 11.9272 3.81149C11.8329 3.78083 11.7318 3.76039 11.6221 3.75488H11.5078H8.49454H8.38025C8.27136 3.7596 8.16943 3.78004 8.07521 3.81149C7.99336 3.84373 7.90995 3.89169 7.83813 3.96482L10.0012 7.78214Z" fill="#188038"/>
<path d="M7.44276 12.2988L5.30442 16.0729C5.30442 16.0729 5.23337 16.0383 5.13684 15.9668C5.44033 16.2003 5.73533 16.2498 5.73533 16.2498H14.1335C14.5968 16.2498 14.6934 16.0729 14.6934 16.0729C14.6949 16.0721 14.6957 16.0713 14.6972 16.0705L12.5604 12.2988H7.44276Z" fill="#4285F4"/>
<path d="M7.44292 12.2988H3.12994C3.15157 12.8115 3.37397 13.111 3.37397 13.111L3.53614 13.3925C3.54773 13.409 3.55468 13.4185 3.55468 13.4185L3.90759 14.038L4.69991 15.4172C4.72308 15.473 4.75011 15.5241 4.77868 15.5728C4.78949 15.5894 4.79953 15.6074 4.81112 15.6232C4.81421 15.6279 4.81729 15.6326 4.82038 15.6373C4.91846 15.7757 5.02812 15.8826 5.13778 15.9668C5.23431 16.0391 5.30535 16.0729 5.30535 16.0729L7.44292 12.2988Z" fill="#1967D2"/>
<path d="M12.5604 12.2988H16.8734C16.8518 12.8115 16.6294 13.111 16.6294 13.111L16.4672 13.3925C16.4556 13.409 16.4487 13.4185 16.4487 13.4185L16.0958 14.038L15.3034 15.4172C15.2803 15.473 15.2532 15.5241 15.2247 15.5728C15.2139 15.5894 15.2038 15.6074 15.1922 15.6232C15.1891 15.6279 15.186 15.6326 15.183 15.6373C15.0849 15.7757 14.9752 15.8826 14.8656 15.9668C14.769 16.0391 14.698 16.0729 14.698 16.0729L12.5604 12.2988Z" fill="#EA4335"/>
</svg>
