<svg width="22" height="22" viewBox="0 0 22 22" fill="none" xmlns="http://www.w3.org/2000/svg">
<path d="M10.8335 13.833C12.4904 13.833 13.8335 12.4899 13.8335 10.833C13.8335 9.17615 12.4904 7.83301 10.8335 7.83301C9.17664 7.83301 7.8335 9.17615 7.8335 10.833C7.8335 12.4899 9.17664 13.833 10.8335 13.833Z" stroke="#717680" stroke-width="1.66667" stroke-linecap="round" stroke-linejoin="round"/>
<path d="M17.5608 13.5603C17.4398 13.8345 17.4037 14.1386 17.4571 14.4335C17.5106 14.7284 17.6512 15.0006 17.8608 15.2148L17.9153 15.2694C18.0844 15.4382 18.2185 15.6388 18.31 15.8595C18.4015 16.0802 18.4486 16.3168 18.4486 16.5557C18.4486 16.7947 18.4015 17.0313 18.31 17.252C18.2185 17.4727 18.0844 17.6732 17.9153 17.8421C17.7465 18.0111 17.5459 18.1453 17.3252 18.2368C17.1045 18.3283 16.8679 18.3753 16.629 18.3753C16.39 18.3753 16.1534 18.3283 15.9327 18.2368C15.712 18.1453 15.5114 18.0111 15.3426 17.8421L15.288 17.7876C15.0738 17.578 14.8017 17.4374 14.5068 17.3839C14.2119 17.3304 13.9077 17.3665 13.6335 17.4876C13.3646 17.6028 13.1353 17.7941 12.9738 18.038C12.8123 18.2819 12.7256 18.5677 12.7244 18.8603V19.0148C12.7244 19.497 12.5328 19.9595 12.1919 20.3005C11.8509 20.6414 11.3884 20.833 10.9062 20.833C10.424 20.833 9.96155 20.6414 9.62057 20.3005C9.2796 19.9595 9.08804 19.497 9.08804 19.0148V18.933C9.081 18.6321 8.9836 18.3403 8.80851 18.0955C8.63341 17.8506 8.38871 17.6642 8.10622 17.5603C7.83203 17.4393 7.52787 17.4032 7.23296 17.4566C6.93806 17.5101 6.66593 17.6507 6.45168 17.8603L6.39713 17.9148C6.22827 18.0839 6.02775 18.218 5.80702 18.3095C5.5863 18.401 5.34971 18.4481 5.11077 18.4481C4.87183 18.4481 4.63524 18.401 4.41451 18.3095C4.19379 18.218 3.99327 18.0839 3.82441 17.9148C3.65536 17.746 3.52125 17.5454 3.42975 17.3247C3.33825 17.104 3.29116 16.8674 3.29116 16.6285C3.29116 16.3895 3.33825 16.1529 3.42975 15.9322C3.52125 15.7115 3.65536 15.511 3.82441 15.3421L3.87895 15.2876C4.08853 15.0733 4.22912 14.8012 4.28259 14.5063C4.33606 14.2114 4.29996 13.9072 4.17895 13.633C4.06371 13.3641 3.87236 13.1348 3.62846 12.9733C3.38456 12.8118 3.09876 12.7251 2.80622 12.7239H2.65168C2.16947 12.7239 1.707 12.5324 1.36603 12.1914C1.02505 11.8504 0.833496 11.3879 0.833496 10.9057C0.833496 10.4235 1.02505 9.96106 1.36603 9.62009C1.707 9.27911 2.16947 9.08755 2.65168 9.08755H2.7335C3.0344 9.08051 3.32623 8.98312 3.57104 8.80802C3.81585 8.63292 4.00233 8.38822 4.10622 8.10574C4.22724 7.83154 4.26334 7.52738 4.20986 7.23247C4.15639 6.93757 4.0158 6.66544 3.80622 6.45119L3.75168 6.39664C3.58263 6.22778 3.44852 6.02726 3.35702 5.80654C3.26553 5.58581 3.21843 5.34922 3.21843 5.11028C3.21843 4.87134 3.26553 4.63475 3.35702 4.41403C3.44852 4.1933 3.58263 3.99278 3.75168 3.82392C3.92054 3.65487 4.12106 3.52076 4.34179 3.42926C4.56251 3.33776 4.7991 3.29067 5.03804 3.29067C5.27698 3.29067 5.51357 3.33776 5.7343 3.42926C5.95502 3.52076 6.15555 3.65487 6.32441 3.82392L6.37895 3.87846C6.5932 4.08804 6.86533 4.22863 7.16023 4.2821C7.45514 4.33557 7.7593 4.29948 8.0335 4.17846H8.10622C8.3751 4.06322 8.60442 3.87188 8.76594 3.62798C8.92747 3.38408 9.01415 3.09827 9.01531 2.80574V2.65119C9.01531 2.16898 9.20687 1.70652 9.54785 1.36554C9.88882 1.02457 10.3513 0.833008 10.8335 0.833008C11.3157 0.833008 11.7782 1.02457 12.1191 1.36554C12.4601 1.70652 12.6517 2.16898 12.6517 2.65119V2.73301C12.6528 3.02554 12.7395 3.31135 12.901 3.55525C13.0626 3.79915 13.2919 3.9905 13.5608 4.10574C13.835 4.22675 14.1391 4.26285 14.434 4.20938C14.7289 4.1559 15.0011 4.01531 15.2153 3.80574L15.2699 3.75119C15.4387 3.58214 15.6392 3.44803 15.86 3.35654C16.0807 3.26504 16.3173 3.21794 16.5562 3.21794C16.7952 3.21794 17.0318 3.26504 17.2525 3.35654C17.4732 3.44803 17.6737 3.58214 17.8426 3.75119C18.0116 3.92005 18.1457 4.12057 18.2372 4.3413C18.3287 4.56202 18.3758 4.79862 18.3758 5.03755C18.3758 5.27649 18.3287 5.51308 18.2372 5.73381C18.1457 5.95453 18.0116 6.15506 17.8426 6.32392L17.788 6.37846C17.5785 6.59272 17.4379 6.86484 17.3844 7.15975C17.3309 7.45465 17.367 7.75881 17.488 8.03301V8.10574C17.6033 8.37462 17.7946 8.60393 18.0385 8.76546C18.2824 8.92698 18.5682 9.01366 18.8608 9.01483H19.0153C19.4975 9.01483 19.96 9.20638 20.301 9.54736C20.6419 9.88833 20.8335 10.3508 20.8335 10.833C20.8335 11.3152 20.6419 11.7777 20.301 12.1187C19.96 12.4596 19.4975 12.6512 19.0153 12.6512H18.9335C18.641 12.6524 18.3552 12.739 18.1113 12.9006C17.8674 13.0621 17.676 13.2914 17.5608 13.5603Z" stroke="#717680" stroke-width="1.66667" stroke-linecap="round" stroke-linejoin="round"/>
</svg>
