<svg width="33" height="33" viewBox="0 0 33 33" fill="none" xmlns="http://www.w3.org/2000/svg">
<g opacity="0.3">
<path d="M16.4292 4.57129C22.9776 4.57144 28.2856 9.88028 28.2856 16.4287C28.2855 22.977 22.9775 28.285 16.4292 28.2852C9.88077 28.2852 4.57193 22.9771 4.57178 16.4287C4.57178 9.88019 9.88068 4.57129 16.4292 4.57129Z" stroke="#DC6803" stroke-width="2"/>
</g>
<g opacity="0.1">
<path d="M16.4287 1C24.9496 1.00008 31.8574 7.9078 31.8574 16.4287C31.8573 24.9496 24.9496 31.8573 16.4287 31.8574C7.9078 31.8574 1.00008 24.9496 1 16.4287C1 7.90775 7.90775 1 16.4287 1Z" stroke="#DC6803" stroke-width="2"/>
</g>
<g clip-path="url(#clip0_19232_5132)">
<path d="M16.4285 13.0957V16.429M16.4285 19.7624H16.4369M24.7619 16.429C24.7619 21.0314 21.0309 24.7624 16.4285 24.7624C11.8262 24.7624 8.09521 21.0314 8.09521 16.429C8.09521 11.8267 11.8262 8.0957 16.4285 8.0957C21.0309 8.0957 24.7619 11.8267 24.7619 16.429Z" stroke="#DC6803" stroke-width="2" stroke-linecap="round" stroke-linejoin="round"/>
</g>
<defs>
<clipPath id="clip0_19232_5132">
<rect width="20" height="20" fill="white" transform="translate(6.42871 6.42871)"/>
</clipPath>
</defs>
</svg>
